<?xml version="1.0" encoding="utf-8"?>
<!-- Generator: Adobe Illustrator 27.0.0, SVG Export Plug-In . SVG Version: 6.00 Build 0)  -->
<svg version="1.0" id="Created_By_Vectorportal.com"
	 xmlns="http://www.w3.org/2000/svg" xmlns:xlink="http://www.w3.org/1999/xlink" x="0px" y="0px" viewBox="0 0 800 800"
	 enable-background="new 0 0 800 800" xml:space="preserve">
<g>
	<path d="M751.76,413.22l33.49-56.98l-109.71,22.74c7.07-70.23-0.73-128.54-3.64-146.6c12.62-11.7,25.82-23.39,39.78-35.13
		l3.72-3.13l-0.1-0.1c0.5,0.01,0.97,0.13,1.47,0.12c21.18-0.44,38.04-18.02,37.59-39.2c-0.44-21.17-18.02-38.05-39.2-37.6
		c-21.17,0.44-38.04,18.04-37.59,39.21c0,0.04,0.01,0.08,0.01,0.12l-0.06-0.06l-3.11,3.59c-17.19,19.89-34.95,39.17-53.13,57.85
		c-75.18-8-184.86-26.95-213.57-70.36l-4.82-7.29l-4.82,7.29c-30.73,46.48-154.28,64.92-228.94,71.9
		c-17.79-17.61-35.21-35.78-52.1-54.52l-3.19-3.52l-0.06,0.06c0-0.04,0.01-0.08,0.01-0.12c0-21.17-17.23-38.42-38.41-38.42
		c-21.18,0-38.41,17.24-38.41,38.42c0,21.18,17.22,38.4,38.41,38.4c0.5,0,0.97-0.13,1.47-0.15l-0.1,0.1l3.78,3.05
		c18.21,14.67,35.25,29.3,51.28,43.97c-3.3,26.27-7.34,75.53-1.54,132.61L18.16,356.25l33.49,56.98L1,457.5l104.78,15.98v64.69
		l4.43,2.08c29.29,13.75,58.51,25.5,87.59,35.26c5.22,7.57,10.69,14.91,16.47,21.95c0.29,0.36,0.61,0.7,0.9,1.05l-45.8,44.3
		L135.6,749.59l102.81-43.75l43.49-46.52c34.46,23.66,74.38,41.76,119.46,54.03l1.52,0.41l1.52-0.41
		c44.93-12.23,84.72-30.24,119.1-53.77l40.84,41.89l103.7,41.59L632.04,637l-41.47-38.46c0.3-0.37,0.62-0.71,0.93-1.08
		c6.03-7.34,11.72-15,17.14-22.91c26.42-9.61,52.61-21.06,78.5-34.43l4.17-2.15v-63.52l111.11-16.95L751.76,413.22z M715.5,133.3
		c12.37-0.26,22.65,9.59,22.91,21.98c0.26,12.37-9.61,22.66-21.97,22.92c-12.38,0.26-22.66-9.61-22.92-21.98
		C693.25,143.83,703.12,133.56,715.5,133.3 M698.22,189.6l4.03,4c-3.48,2.96-6.83,5.9-10.22,8.86l-9.69-28.52
		C685.98,180.63,691.49,186.06,698.22,189.6 M667.86,180.87l11.21,33.01c-5.18,4.62-10.26,9.26-15.23,13.9l-9.11-32.3
		C659.14,190.65,663.5,185.76,667.86,180.87 M642,209.16l8.74,30.98c-4.64,4.47-9.17,8.95-13.63,13.43l-9.08-29.84
		C632.71,218.9,637.38,214.06,642,209.16 M642.3,277.24l21.41-18.41c3.85,36.69,6.98,102.65-8.06,173.06
		c-1.31,6.13-2.77,12.14-4.28,18.09c-8.36,2.1-16.72,4.09-25.1,5.98C646.25,387.27,645.78,319.69,642.3,277.24 M150.19,432.24
		c-13.42-62.57-12.45-121.71-9.37-159.93l22.06,18.97c-1.81,35.73-0.91,84.44,10.05,135.75c2.27,10.65,4.92,20.96,7.86,30.99
		c-8.61-1.85-17.22-3.8-25.82-5.86C153.25,445.62,151.64,439.01,150.19,432.24 M403.14,219.31v197.4l-4.22,4.08L275.34,306.19
		c7.07-5.86,17-6.89,22.85-6.89c8.87,0,17.18,2.18,20.81,4.34l12.14,7.2l-5.83-12.85c-10.78-23.7-27.16-31.5-39.64-33.74
		C324.53,256.33,368.3,242.71,403.14,219.31 M221.43,325.27l4.47,8.16c0.4,1.28,0.75,2.58,0.73,3.81c-0.06,2.73-1.36,4.97-4.08,7.06
		c-14.65,11.15-15.61,32.4-12.48,46.92c-24.06-16.29-19.69-39.76-18.45-44.71l17.8-19.03c0.33,0.39,0.68,0.78,1.01,1.17l3.16,3.79
		l7.46-7.69C221.18,324.91,221.3,325.09,221.43,325.27 M213.69,292.69l40,28.13l-0.06,0.04l-14.3,11.01l-2.93,2.26L213.69,292.69z
		 M216.25,404.74l12.85,5.84l-7.21-12.15c-4.82-8.1-7.68-32.45,3.61-44.55l87.27,89.52l-106.36,6.01c0,0-9.22-13.79-14.37-62.93
		C197.21,393.1,204.86,399.57,216.25,404.74 M240.6,349.06l6.77-6.47l119.42,109.28l-13.36,12.92L240.6,349.06z M261.62,328.98
		l8.6-8.22l118.49,109.9l-13.91,13.46L261.62,328.98z M311.81,291.87c-4.31-0.91-9.04-1.44-13.62-1.44
		c-14.69,0-26.53,4.93-33.34,13.87c-2.12,2.79-4.41,4.08-7.23,4.08c-4.64,0-9.9-3.42-14.03-6.93l7.16-7.38l-3.06-2.58l19.36-18.11
		c1.57-0.38,5.08-1.08,9.61-1.08C287.19,272.3,301.1,275.96,311.81,291.87 M240.97,285.66c-4.89-4.16-9.75-8.39-14.6-12.64
		c9.54-0.91,20.51-2.19,32.38-4L240.97,285.66z M234.41,291.78c1.13,0.96,2.23,1.98,3.36,2.94l-2.33,2.43l-3.85-2.71l-30.71-21.59
		l1.96-8.92C213.26,273.43,223.79,282.71,234.41,291.78 M213.28,310.38l3.37,6.16l-2.58,2.67c-1.43-1.69-2.91-3.35-4.35-5.01
		c-4.77-5.56-9.67-11.09-14.68-16.58l3.49-14.14L213.28,310.38z M203.63,320.7l-14.65,15.67c-0.26-10-0.36-20.84-0.26-32.56
		C193.8,309.42,198.78,315.04,203.63,320.7 M524.49,319.07l8.77,8.04L387.69,481.52c-10.09-0.12-20.2-0.39-30.32-0.82L524.49,319.07
		z M550.71,299.2c-4.05,3.6-9.23,7.12-13.88,7.22c-2.82,0.06-5.14-1.19-7.31-3.93c-7-8.8-18.94-13.48-33.62-13.17
		c-4.58,0.1-9.3,0.73-13.59,1.73c10.38-16.13,24.21-20.08,34.73-20.3c4.53-0.09,8.05,0.53,9.63,0.88l19.73,17.7l-3,2.64
		L550.71,299.2z M572.64,341.6c-2.76-2.03-4.11-4.25-4.23-6.97c-0.05-1.23,0.28-2.53,0.65-3.82l4.3-8.25
		c0.13-0.19,0.24-0.37,0.37-0.53l7.62,7.53l3.08-3.85c0.32-0.4,0.66-0.79,0.99-1.19l18.19,18.65c1.35,4.93,6.21,28.3-17.51,45.09
		C588.93,373.67,587.52,352.44,572.64,341.6 M584.84,311.23c-1.41,1.69-2.86,3.39-4.25,5.1l-2.63-2.61l3.24-6.23l14.18-27.22
		l3.79,14.07C594.28,299.94,589.5,305.56,584.84,311.23 M562.57,291.94l-3.79,2.79l-2.39-2.38c1.12-0.97,2.19-2.02,3.3-3.01
		c10.44-9.29,20.77-18.79,30.99-28.51l2.15,8.88L562.57,291.94z M580.42,289.82l-21.83,41.9l-2.97-2.19l-14.53-10.71l-0.06-0.04
		L580.42,289.82z M547.8,340.42l6.9,6.32L429.05,481.15c-9.75,0.29-19.49,0.47-29.22,0.47L547.8,340.42z M455.68,473.43l34.21-36.59
		c34.25-0.62,73.25-1.39,106.36-2.19c-0.81,9.88-2.23,19.35-4.17,28.45c-43.17,8.27-86.51,13.79-129.74,16.51L455.68,473.43z
		 M624.34,266.71c-4.28,4.48-8.46,8.97-12.56,13.47l-7.87-32.29c3.85-3.76,7.73-7.46,11.55-11.28L624.34,266.71z M610.91,228.58
		c-7.04,7.07-14.15,14.05-21.32,20.92c-70.93-9.25-142.42-26.04-184.56-56.23l-0.15-30.62
		C441.04,201.54,534.34,219.92,610.91,228.58 M401.03,162.49l0.14,30.47c-44.83,32.37-123.34,49.4-198.95,58.26
		c-7.49-6.92-14.94-13.92-22.3-21.05C258.95,222.25,362.6,204.06,401.03,162.49 M177.54,240.22c3.9,3.74,7.86,7.36,11.79,11.04
		l-7.19,32.45c-4.2-4.41-8.47-8.81-12.84-13.2L177.54,240.22z M150.44,213.33c4.72,4.8,9.5,9.55,14.28,14.28l-8.45,30.02
		c-4.55-4.39-9.18-8.77-13.91-13.14L150.44,213.33z M75.38,183.94c-12.37,0-22.45-10.09-22.45-22.46
		c0-12.39,10.08-22.46,22.45-22.46c12.38,0,22.46,10.06,22.46,22.46C97.83,173.86,87.76,183.94,75.38,183.94 M100.28,207.68
		c-3.46-2.89-6.87-5.75-10.41-8.64l3.95-4.08c6.66-3.68,12.05-9.22,15.55-15.99L100.28,207.68z M129,232.4
		c-5.06-4.53-10.24-9.06-15.52-13.57L124,185.6c4.46,4.8,8.92,9.59,13.43,14.33L129,232.4z M36.12,447.27l35.29-30.84l-22.36-38.04
		l83.11,17.22c0.55,4.12,1.14,8.26,1.8,12.44l-27.94,31.3l-0.23-0.07v18.61L36.12,447.27z M244.78,589.59
		c10.46,2.75,20.9,5.24,31.31,7.47l-70.91,74.61l-23.28-21.26L244.78,589.59z M215.8,581.3c4.37,1.35,8.74,2.66,13.1,3.92
		l-5.66,5.48C220.71,587.62,218.23,584.49,215.8,581.3 M180.57,654.41l21.95,20.05l-42.4,44.61L180.57,654.41z M161.6,723.11
		l43.76-46.05l20.48,18.71L161.6,723.11z M230.1,693.96l-0.35,0.15l-21.73-19.84l72.5-76.28c11.25,2.32,22.46,4.35,33.64,6.05
		L230.1,693.96z M480.25,615.21c-41.03,26.73-77.11,37.59-77.11,37.59v-41.74c0.72,0,1.44,0.02,2.15,0.02h0.02
		c22.42,0,44.79-1.33,67.07-3.93L480.25,615.21z M289.68,651l16.3-17.43c27.76,18.34,59.44,32.83,95.03,43.4l0.15,24.32
		C359.02,689.48,321.82,672.71,289.68,651 M405.01,701.16l-0.15-24.23c36.43-10.84,67.46-25.45,93.85-42.78l16.79,17.23
		C483.59,672.83,446.73,689.44,405.01,701.16 M489.92,604.82c11.43-1.69,22.82-3.72,34.19-6.09l69.39,69.94l-21.37,20.49
		L489.92,604.82z M575.94,690.84l20.27-19.44l45.42,45.79L575.94,690.84z M642.83,712.92L599,668.74l21.76-20.87L642.83,712.92z
		 M618.99,644.23L596.29,666l-67.69-68.23c10.65-2.31,21.27-4.92,31.86-7.83L618.99,644.23z M582.35,590.91l-5.99-5.55
		c4.63-1.4,9.25-2.87,13.87-4.39C587.66,584.34,585.03,587.65,582.35,590.91 M675.9,528.56c-87.7,44.53-178.72,67.1-270.6,67.1
		c-92.04,0-187.6-22.64-284.11-67.3v-68.85c92.64,24.9,186.19,37.52,278.22,37.52c91.99,0,184.96-12.61,276.48-37.49V528.56z
		 M691.31,444.71l0.07-0.03v-5.3l-0.07-0.09v-0.04l-0.03,0.01l-20.25-26.38c1-5.98,1.88-11.9,2.65-17.77l80.7-16.72l-22.36,38.04
		l35.29,30.84l-75.99,11.59V444.71z M83.69,161.49c0,4.59-3.72,8.31-8.31,8.31c-4.59,0-8.31-3.72-8.31-8.31
		c0-4.59,3.72-8.31,8.31-8.31C79.97,153.18,83.69,156.9,83.69,161.49 M707.65,155.75c0-4.59,3.72-8.31,8.3-8.31
		c4.59,0,8.31,3.72,8.31,8.31c0,4.59-3.72,8.31-8.31,8.31C711.37,164.05,707.65,160.34,707.65,155.75"/>
</g>
</svg>
