<?xml version="1.0" encoding="utf-8"?>
<!-- Generator: Adobe Illustrator 27.0.0, SVG Export Plug-In . SVG Version: 6.00 Build 0)  -->
<svg version="1.0" id="PATTERN" xmlns="http://www.w3.org/2000/svg" xmlns:xlink="http://www.w3.org/1999/xlink" x="0px" y="0px"
	 viewBox="0 0 500 500" enable-background="new 0 0 500 500" xml:space="preserve">
<pattern  width="78.3" height="135.9" patternUnits="userSpaceOnUse" id="Motivo_nuevo_5" viewBox="82.25 -185.66 78.3 135.9" overflow="visible">
	<g>
		<rect x="82.25" y="-185.66" fill="none" width="78.3" height="135.9"/>
		<g>
			<polygon fill="none" stroke="#0C0F27" stroke-width="8" stroke-miterlimit="10" points="121.45,-72.34 121.45,-27.19 
				160.55,-4.62 199.65,-27.19 199.65,-72.34 160.55,-94.91 			"/>
			<polyline fill="none" stroke="#0C0F27" stroke-width="8" stroke-miterlimit="10" points="121.45,-27.14 160.55,-49.71 
				160.55,-94.91 			"/>
			<polyline fill="none" stroke="#0C0F27" stroke-width="8" stroke-miterlimit="10" points="121.45,-47.86 142.6,-60.07 
				142.6,-84.55 			"/>
			<line fill="none" stroke="#0C0F27" stroke-width="8" stroke-miterlimit="10" x1="160.55" y1="-49.71" x2="199.65" y2="-27.19"/>
		</g>
		<g>
			<polygon fill="none" stroke="#0C0F27" stroke-width="8" stroke-miterlimit="10" points="43.15,-72.34 43.15,-27.19 82.25,-4.62 
				121.35,-27.19 121.35,-72.34 82.25,-94.91 			"/>
			<polyline fill="none" stroke="#0C0F27" stroke-width="8" stroke-miterlimit="10" points="43.15,-27.14 82.25,-49.71 
				82.25,-94.91 			"/>
			<polyline fill="none" stroke="#0C0F27" stroke-width="8" stroke-miterlimit="10" points="100.2,-84.55 100.2,-60.07 
				121.35,-47.86 			"/>
			<line fill="none" stroke="#0C0F27" stroke-width="8" stroke-miterlimit="10" x1="82.25" y1="-49.71" x2="121.35" y2="-27.19"/>
		</g>
		<g>
			<polygon fill="none" stroke="#0C0F27" stroke-width="8" stroke-miterlimit="10" points="160.6,-140.29 160.6,-95.14 
				199.7,-72.57 238.8,-95.14 238.8,-140.29 199.7,-162.86 			"/>
			<polyline fill="none" stroke="#0C0F27" stroke-width="8" stroke-miterlimit="10" points="160.6,-95.09 199.7,-117.66 
				199.7,-162.86 			"/>
			<polyline fill="none" stroke="#0C0F27" stroke-width="8" stroke-miterlimit="10" points="160.6,-115.81 181.75,-128.02 
				181.75,-152.5 			"/>
		</g>
		<g>
			<polygon fill="none" stroke="#0C0F27" stroke-width="8" stroke-miterlimit="10" points="82.3,-140.29 82.3,-95.14 121.4,-72.57 
				160.5,-95.14 160.5,-140.29 121.4,-162.86 			"/>
			<polyline fill="none" stroke="#0C0F27" stroke-width="8" stroke-miterlimit="10" points="82.3,-95.09 121.4,-117.66 
				121.4,-162.86 			"/>
			<polyline fill="none" stroke="#0C0F27" stroke-width="8" stroke-miterlimit="10" points="82.3,-115.81 103.45,-128.02 
				103.45,-152.5 			"/>
			<polyline fill="none" stroke="#0C0F27" stroke-width="8" stroke-miterlimit="10" points="139.35,-152.5 139.35,-128.02 
				160.5,-115.81 			"/>
			<line fill="none" stroke="#0C0F27" stroke-width="8" stroke-miterlimit="10" x1="121.4" y1="-117.66" x2="160.5" y2="-95.14"/>
			<polygon fill="none" stroke="#0C0F27" stroke-width="8" stroke-linecap="round" stroke-miterlimit="10" points="111.15,-95.12 
				121.4,-89.2 131.65,-95.12 121.4,-101.03 			"/>
		</g>
		<g>
			<polygon fill="none" stroke="#0C0F27" stroke-width="8" stroke-miterlimit="10" points="4,-140.29 4,-95.14 43.1,-72.57 
				82.2,-95.14 82.2,-140.29 43.1,-162.86 			"/>
			<polyline fill="none" stroke="#0C0F27" stroke-width="8" stroke-miterlimit="10" points="61.05,-152.5 61.05,-128.02 
				82.2,-115.81 			"/>
			<line fill="none" stroke="#0C0F27" stroke-width="8" stroke-miterlimit="10" x1="43.1" y1="-117.66" x2="82.2" y2="-95.14"/>
		</g>
		<g>
			<polygon fill="none" stroke="#0C0F27" stroke-width="8" stroke-miterlimit="10" points="121.45,-208.24 121.45,-163.09 
				160.55,-140.52 199.65,-163.09 199.65,-208.24 160.55,-230.81 			"/>
			<polyline fill="none" stroke="#0C0F27" stroke-width="8" stroke-miterlimit="10" points="121.45,-163.04 160.55,-185.61 
				160.55,-230.81 			"/>
			<polyline fill="none" stroke="#0C0F27" stroke-width="8" stroke-miterlimit="10" points="121.45,-183.76 142.6,-195.97 
				142.6,-220.45 			"/>
			
				<line fill="none" stroke="#0C0F27" stroke-width="8" stroke-miterlimit="10" x1="160.55" y1="-185.61" x2="199.65" y2="-163.09"/>
			<polygon fill="none" stroke="#0C0F27" stroke-width="8" stroke-linecap="round" stroke-miterlimit="10" points="150.3,-163.07 
				160.55,-157.15 170.8,-163.07 160.55,-168.98 			"/>
		</g>
		<g>
			<polygon fill="none" stroke="#0C0F27" stroke-width="8" stroke-miterlimit="10" points="43.15,-208.24 43.15,-163.09 
				82.25,-140.52 121.35,-163.09 121.35,-208.24 82.25,-230.81 			"/>
			<polyline fill="none" stroke="#0C0F27" stroke-width="8" stroke-miterlimit="10" points="43.15,-163.04 82.25,-185.61 
				82.25,-230.81 			"/>
			<polyline fill="none" stroke="#0C0F27" stroke-width="8" stroke-miterlimit="10" points="100.2,-220.45 100.2,-195.97 
				121.35,-183.76 			"/>
			<line fill="none" stroke="#0C0F27" stroke-width="8" stroke-miterlimit="10" x1="82.25" y1="-185.61" x2="121.35" y2="-163.09"/>
			<polygon fill="none" stroke="#0C0F27" stroke-width="8" stroke-linecap="round" stroke-miterlimit="10" points="72,-163.07 
				82.25,-157.15 92.5,-163.07 82.25,-168.98 			"/>
		</g>
	</g>
</pattern>
<rect fill="#FFFFFF" width="500" height="500"/>
<rect fill="url(#Motivo_nuevo_5)" width="500" height="500"/>
</svg>
